# xmcd
#
# Track frame offsets:
#	150
#	13510
#	24265
#	42161
#	56549
#	67821
#	79828
#	92045
#	104702
#	115937
#	128795
#	143508
#	157947
#	170577
#
# Disc length: 2384 seconds
#
# Revision: 1
# Processed by: cddbd v1.5.2PL0 Copyright (c) Steve Scherf et al.
# Submitted via: audiograbber 1.82.02
#
DISCID=aa094e0e
DTITLE=Bluey Francis - Songs From West Of The Darling
DYEAR=2003
DGENRE=Country
TTITLE0=The Old Balladoors
TTITLE1=The Condaming Horse Bell
TTITLE2=Darling River Drover
TTITLE3=Wouldn't Be Dead For Quids
TTITLE4=Hands Of Fame
TTITLE5=Out On Those Rolling Plains
TTITLE6=Shakey,s Home Brew
TTITLE7=Pub With No Beer
TTITLE8=Where Are They Now
TTITLE9=Lady Truckie
TTITLE10=City Born And City Bred
TTITLE11=Relics Of There Dreams
TTITLE12=Old Mate, You,ll Be Right
TTITLE13=A Word From Bluey
EXTD=
EXTT0=
EXTT1=
EXTT2=
EXTT3=
EXTT4=
EXTT5=
EXTT6=
EXTT7=
EXTT8=
EXTT9=
EXTT10=
EXTT11=
EXTT12=
EXTT13=
PLAYORDER=
